# xmcd
#
# Track frame offsets:
# 150
# 27010
# 48275
# 70129
# 98845
# 125413
# 155478
# 184518
# 212942
# 238260
# 261072
# 290253
# 317528
#
# Disc length: 4675 seconds
#
#
# Revision: 4
# Processed by: cddbd v1.5.1PL2 Copyright (c) Steve Scherf et al.
# Submitted via: FreeRIP 2.942 
#
DISCID=b112410d
DTITLE=J.K. Rowling - Harry Potter en de Vuurbeker
DYEAR=2001
DGENRE=Luisterboek
TTITLE0=H30-05 Jullie worden er voorts van
TTITLE1=H30-06 Ze sloeg totaal geen acht
TTITLE2=H30-07 De jaren van Voldemorts opmars
TTITLE3=H31-01 DE DERDE OPDRACHT HOOFDSTUK 31
TTITLE4=H31-02 Harry en Hermelien gingen kijken
TTITLE5=H31-03 Aan tafel van de Zwadderaars
TTITLE6=H31-04 Even leek het er op
TTITLE7=H31-05 Goed, Harry en Carlo
TTITLE8=H31-06 Onmiddelijk werd de wereld
TTITLE9=H31-07 Zijn verlangen om als eerste
TTITLE10=H31-08 Zo'n honderd meter
TTITLE11=H32-01 BOT, VLEES EN BLOED HOOFDSTUK 32
TTITLE12=H32-02 Hij verscheen weer in Harry's
EXTD=
EXTT0=
EXTT1=
EXTT2=
EXTT3=
EXTT4=
EXTT5=
EXTT6=
EXTT7=
EXTT8=
EXTT9=
EXTT10=
EXTT11=
EXTT12=
PLAYORDER=
